<svg height="512" viewBox="0 0 60 60" width="512" xmlns="http://www.w3.org/2000/svg" xmlns:xlink="http://www.w3.org/1999/xlink"><linearGradient id="linearGradient-1" x1="7.54%" x2="92.46%" y1="-6.968%" y2="110.424%"><stop offset="0" stop-color="#d3dff2"/><stop offset=".172" stop-color="#d3dff2"/><stop offset=".2" stop-color="#d3dff2"/><stop offset=".2" stop-color="#dae2f2"/><stop offset=".201" stop-color="#ebeaf2"/><stop offset=".201" stop-color="#f6eff2"/><stop offset=".202" stop-color="#fdf2f2"/><stop offset=".205" stop-color="#fff3f2"/><stop offset=".252" stop-color="#fff3f2"/><stop offset=".26" stop-color="#fff3f2"/><stop offset=".26" stop-color="#d3dff2"/><stop offset=".397" stop-color="#d3dff2"/><stop offset=".42" stop-color="#d3dff2"/><stop offset=".42" stop-color="#dae2f2"/><stop offset=".421" stop-color="#ebeaf2"/><stop offset=".421" stop-color="#f6eff2"/><stop offset=".422" stop-color="#fdf2f2"/><stop offset=".425" stop-color="#fff3f2"/><stop offset=".489" stop-color="#fff3f2"/><stop offset=".5" stop-color="#fff3f2"/><stop offset=".5" stop-color="#f8f0f2"/><stop offset=".5" stop-color="#e7e8f2"/><stop offset=".5" stop-color="#dce3f2"/><stop offset=".5" stop-color="#d5e0f2"/><stop offset=".501" stop-color="#d3dff2"/><stop offset=".706" stop-color="#d3dff2"/><stop offset=".74" stop-color="#d3dff2"/><stop offset=".741" stop-color="#fff3f2"/><stop offset=".835" stop-color="#fff3f2"/><stop offset=".85" stop-color="#fff3f2"/><stop offset=".851" stop-color="#d3dff2"/></linearGradient><g id="Page-1" fill="none" fill-rule="evenodd"><g id="007---Responsive-Design" fill-rule="nonzero"><path id="Shape" d="m54 50v3c0 3.3137085-2.6862915 6-6 6h-41c-3.3137085 0-6-2.6862915-6-6v-3c0-.5522847.44771525-1 1-1h17v2c.0032948 1.1032019.8967981 1.9967052 2 2h13c1.1032019-.0032948 1.9967052-.8967981 2-2v-2h17c.5522847 0 1 .4477153 1 1z" fill="#e8edfc"/><path id="Shape" d="m53 49h-3c.5522847 0 1 .4477153 1 1v3c0 3.3137085-2.6862915 6-6 6h3c3.3137085 0 6-2.6862915 6-6v-3c0-.5522847-.4477153-1-1-1z" fill="#cad9fc"/><path id="Shape" d="m51 17v32h-47v-32c.0032948-1.1032019.89679813-1.9967052 2-2h43c1.1032019.0032948 1.9967052.8967981 2 2z" fill="url(#linearGradient-1)"/><path id="Shape" d="m49 15h-3c1.1032019.0032948 1.9967052.8967981 2 2v32h3v-32c-.0032948-1.1032019-.8967981-1.9967052-2-2z" fill="#cad9fc"/><path id="Shape" d="m36 49v2c-.0032948 1.1032019-.8967981 1.9967052-2 2h-13c-1.1032019-.0032948-1.9967052-.8967981-2-2v-2z" fill="#a4c2f7"/><path id="Shape" d="m53 7 1.414-5.657 4.243 4.243z" fill="#e8edfc"/><rect id="Rectangle-path" fill="#a4c2f7" height="14" rx="1" width="16" x="8" y="19"/><path id="Shape" d="m23 19h-3c.5522847 0 1 .4477153 1 1v12c0 .5522847-.4477153 1-1 1h3c.5522847 0 1-.4477153 1-1v-12c0-.5522847-.4477153-1-1-1z" fill="#7facfa"/><path id="Shape" d="m7 59h3c-3.3137085 0-6-2.6862915-6-6v-3c0-.5522847.44771525-1 1-1h2v-32c.0032948-1.1032019.89679813-1.9967052 2-2h-3c-1.10320187.0032948-1.9967052.8967981-2 2v32h-2c-.55228475 0-1 .4477153-1 1v3c0 3.3137085 2.6862915 6 6 6z" fill="#fff"/><path id="Rectangle-path" d="m3 17h2v8h-2z" fill="#fff"/><g fill="#428dff"><path id="Shape" d="m7 60h41c3.8641657-.0044086 6.9955914-3.1358343 7-7v-3c0-1.1045695-.8954305-2-2-2h-1v-31c0-1.6568542-1.3431458-3-3-3h-19v-2h3c.5522847 0 1-.4477153 1-1s-.4477153-1-1-1h-3c-1.1045695 0-2 .8954305-2 2v2h-22c-1.65685425 0-3 1.3431458-3 3 0 .5522847.44771525 1 1 1s1-.4477153 1-1 .44771525-1 1-1h43c.5522847 0 1 .4477153 1 1v17h-1c-.5522847 0-1 .4477153-1 1s.4477153 1 1 1h1v12h-45v-23c0-.5522847-.44771525-1-1-1s-1 .4477153-1 1v23h-1c-1.1045695 0-2 .8954305-2 2v3c.00440864 3.8641657 3.13583434 6.9955914 7 7zm28-10v1c0 .5522847-.4477153 1-1 1h-13c-.5522847 0-1-.4477153-1-1v-1zm-33 0h16v1c0 1.6568542 1.3431458 3 3 3h13c1.6568542 0 3-1.3431458 3-3v-1h16v3c-.0033061 2.7600532-2.2399468 4.9966939-5 5h-41c-2.76005315-.0033061-4.99669388-2.2399468-5-5z"/><path id="Shape" d="m4.02 22c-.55228475.0027614-1.00223858-.4427153-1.005-.995s.44271525-1.0022386.995-1.005h.01c.55228475 0 1 .4477153 1 1s-.44771525 1-1 1z"/><circle id="Oval" cx="5" cy="53" r="1"/><path id="Shape" d="m11 54h2c.5522847 0 1-.4477153 1-1s-.4477153-1-1-1h-2c-.5522847 0-1 .4477153-1 1s.4477153 1 1 1z"/><circle id="Oval" cx="8" cy="53" r="1"/><path id="Shape" d="m37 12h2c.5522847 0 1-.4477153 1-1s-.4477153-1-1-1h-2c-.5522847 0-1 .4477153-1 1s.4477153 1 1 1z"/><path id="Shape" d="m43 12h2c.5522847 0 1-.4477153 1-1s-.4477153-1-1-1h-2c-.5522847 0-1 .4477153-1 1s.4477153 1 1 1z"/><path id="Shape" d="m49 12h2c.5522847 0 1-.4477153 1-1s-.4477153-1-1-1h-2c-.5522847 0-1 .4477153-1 1s.4477153 1 1 1z"/><path id="Shape" d="m58 10h-3c-.5522847 0-1 .4477153-1 1s.4477153 1 1 1h3v3c0 .5522847.4477153 1 1 1s1-.4477153 1-1v-3c0-1.1045695-.8954305-2-2-2z"/><path id="Shape" d="m59 18c-.5522847 0-1 .4477153-1 1v2c0 .5522847.4477153 1 1 1s1-.4477153 1-1v-2c0-.5522847-.4477153-1-1-1z"/><path id="Shape" d="m59 24c-.5522847 0-1 .4477153-1 1v2c0 .5522847.4477153 1 1 1s1-.4477153 1-1v-2c0-.5522847-.4477153-1-1-1z"/><path id="Shape" d="m59 30c-.5522847 0-1 .4477153-1 1v3h-3c-.5522847 0-1 .4477153-1 1s.4477153 1 1 1h3c1.1045695 0 2-.8954305 2-2v-3c0-.5522847-.4477153-1-1-1z"/><path id="Shape" d="m45 36c.5522847 0 1-.4477153 1-1s-.4477153-1-1-1h-2c-.5522847 0-1 .4477153-1 1s.4477153 1 1 1z"/><path id="Shape" d="m39 36c.5522847 0 1-.4477153 1-1s-.4477153-1-1-1h-2c-.5522847 0-1 .4477153-1 1s.4477153 1 1 1z"/><path id="Shape" d="m28 34c0 1.1045695.8954305 2 2 2h3c.5522847 0 1-.4477153 1-1s-.4477153-1-1-1h-3v-3c0-.5522847-.4477153-1-1-1s-1 .4477153-1 1z"/><path id="Shape" d="m28 27c0 .5522847.4477153 1 1 1s1-.4477153 1-1v-2c0-.5522847-.4477153-1-1-1s-1 .4477153-1 1z"/><path id="Shape" d="m29 22c.5522847 0 1-.4477153 1-1v-2c0-.5522847-.4477153-1-1-1s-1 .4477153-1 1v2c0 .5522847.4477153 1 1 1z"/><path id="Shape" d="m58.293.293-1.758 1.757-1.414-1.414c-.2548212-.25461579-.6268918-.35250166-.9740209-.25624942-.347129.09625224-.6156631.37176554-.7029791.72124942l-1.414 5.656c-.0852298.34067614.0144872.70109243.2627035.9495135.2482163.24842106.6085502.34843526.9492965.2634865l5.658-1.414c.3494839-.08731595.6249972-.35585011.7212494-.70297914.0962523-.34712904-.0016336-.71919963-.2562494-.97402086l-1.416-1.415 1.758-1.757c.3789722-.39237889.3735524-1.01608478-.0121814-1.40181857-.3857338-.3857338-1.0094397-.39115364-1.4018186-.01218143zm-3.919 5.332.582-2.325.872.872.872.872z"/><path id="Shape" d="m25 20c0-1.1045695-.8954305-2-2-2h-14c-1.1045695 0-2 .8954305-2 2v12c0 1.1045695.8954305 2 2 2h14c1.1045695 0 2-.8954305 2-2zm-16 12v-12h14v12z"/><path id="Shape" d="m8 38h6c.5522847 0 1-.4477153 1-1s-.4477153-1-1-1h-6c-.55228475 0-1 .4477153-1 1s.44771525 1 1 1z"/><path id="Shape" d="m18 36c-.5522847 0-1 .4477153-1 1s.4477153 1 1 1h6c.5522847 0 1-.4477153 1-1s-.4477153-1-1-1z"/><path id="Shape" d="m8 42h23c.5522847 0 1-.4477153 1-1s-.4477153-1-1-1h-23c-.55228475 0-1 .4477153-1 1s.44771525 1 1 1z"/><path id="Shape" d="m34 41c0 .5522847.4477153 1 1 1h12c.5522847 0 1-.4477153 1-1s-.4477153-1-1-1h-12c-.5522847 0-1 .4477153-1 1z"/><path id="Shape" d="m8 46h39c.5522847 0 1-.4477153 1-1s-.4477153-1-1-1h-39c-.55228475 0-1 .4477153-1 1s.44771525 1 1 1z"/></g></g></g></svg>